<svg width="50" height="45" viewBox="0 0 50 45" fill="none" xmlns="http://www.w3.org/2000/svg">
    <path d="M48.1687 16.9745L32.3667 2.74219C30.4109 0.986119 27.7618 0 25 0C22.2382 0 19.5891 0.986119 17.6333 2.74219L1.83127 16.9745C1.24883 17.4956 0.787045 18.1157 0.472697 18.7988C0.158348 19.4819 -0.00231333 20.2143 2.51656e-05 20.9537V39.3716C2.51656e-05 40.8644 0.658505 42.296 1.83061 43.3515C3.00271 44.407 4.59242 45 6.25002 45H43.75C45.4076 45 46.9973 44.407 48.1694 43.3515C49.3415 42.296 50 40.8644 50 39.3716V20.9537C50.0023 20.2143 49.8417 19.4819 49.5273 18.7988C49.213 18.1157 48.7512 17.4956 48.1687 16.9745ZM31.25 41.2478H18.75V33.8671C18.75 32.3743 19.4085 30.9427 20.5806 29.8872C21.7527 28.8317 23.3424 28.2387 25 28.2387C26.6576 28.2387 28.2473 28.8317 29.4194 29.8872C30.5915 30.9427 31.25 32.3743 31.25 33.8671V41.2478ZM45.8333 39.3716C45.8333 39.8692 45.6138 40.3464 45.2231 40.6982C44.8324 41.0501 44.3025 41.2478 43.75 41.2478H35.4167V33.8671C35.4167 31.3792 34.3192 28.9932 32.3657 27.234C30.4122 25.4748 27.7627 24.4865 25 24.4865C22.2373 24.4865 19.5878 25.4748 17.6343 27.234C15.6808 28.9932 14.5833 31.3792 14.5833 33.8671V41.2478H6.25002C5.69749 41.2478 5.16758 41.0501 4.77688 40.6982C4.38618 40.3464 4.16669 39.8692 4.16669 39.3716V20.9537C4.16862 20.4565 4.38792 19.98 4.7771 19.6273L20.5792 5.40066C21.7535 4.34802 23.3431 3.75707 25 3.75707C26.6569 3.75707 28.2465 4.34802 29.4208 5.40066L45.2229 19.6329C45.6106 19.9842 45.8297 20.4585 45.8333 20.9537V39.3716Z" fill="white"/>
</svg>
