<svg width="18" height="23" viewBox="0 0 18 23" fill="none" xmlns="http://www.w3.org/2000/svg">
    <line x1="6.50044" y1="5.36231" x2="11.9004" y2="5.36231" stroke="#A4A4A4" stroke-width="1.6" stroke-linecap="round"/>
    <line x1="6.50044" y1="9.36231" x2="11.9004" y2="9.36231" stroke="#A4A4A4" stroke-width="1.6" stroke-linecap="round"/>
    <line x1="6.50044" y1="13.3623" x2="11.9004" y2="13.3623" stroke="#A4A4A4" stroke-width="1.6" stroke-linecap="round"/>
    <path d="M1.17377 2.75214L0.800505 18.3442C0.761329 19.9807 2.6635 20.9057 3.92653 19.8644C4.49703 19.3941 5.28768 19.295 5.95656 19.6101L7.64907 20.4075C8.18887 20.6618 8.81402 20.6618 9.35381 20.4075L11.2738 19.503C11.8226 19.2444 12.4591 19.2489 13.0041 19.5152L13.9446 19.9747C15.2732 20.6238 16.8225 19.6564 16.8225 18.1777V2.8C16.8225 1.69543 15.9271 0.800003 14.8225 0.800003H3.1732C2.08728 0.800003 1.19976 1.66653 1.17377 2.75214Z" stroke="#A4A4A4" stroke-width="1.6" stroke-linecap="round"/>
</svg>
